<svg width="38" height="30" viewBox="0 0 38 30" fill="none" xmlns="http://www.w3.org/2000/svg">
<path d="M17.86 0L3.63 10.42V19.07L17.86 29.49C17.83 7.26 17.86 18.17 17.86 0Z" fill="#B3B3B3"/>
<path d="M0 21.92H7.47V7.56006H0V21.92Z" fill="#B3B3B3"/>
<path d="M27 29.1397C26.6559 29.1405 26.3193 29.0393 26.0328 28.8488C25.7462 28.6584 25.5225 28.3872 25.39 28.0697C25.2993 27.857 25.2514 27.6284 25.249 27.3972C25.2467 27.1659 25.2899 26.9365 25.3763 26.7219C25.4627 26.5074 25.5905 26.312 25.7524 26.1469C25.9143 25.9818 26.1072 25.8502 26.32 25.7597C27.7344 25.1601 29.0184 24.2905 30.1 23.1997C32.3328 20.9539 33.5873 17.9165 33.59 14.7497C33.5793 11.5786 32.3138 8.54056 30.07 6.29964C28.9863 5.2087 27.7031 4.3362 26.29 3.72964C25.8627 3.54676 25.5251 3.20227 25.3509 2.77136C25.1766 2.34046 25.1799 1.85813 25.36 1.42964C25.4463 1.2158 25.5746 1.02149 25.7375 0.858251C25.9003 0.695015 26.0943 0.566188 26.308 0.479429C26.5216 0.39267 26.7505 0.349751 26.9811 0.353222C27.2116 0.356694 27.4391 0.406485 27.65 0.499636C31.3419 2.07499 34.2782 5.02198 35.84 8.71964C36.6452 10.6175 37.0601 12.6581 37.06 14.7197C37.059 16.7802 36.6477 18.8198 35.85 20.7197C35.077 22.5563 33.9526 24.2242 32.54 25.6297C31.1475 27.0636 29.4858 28.2088 27.65 28.9997C27.4453 29.0905 27.224 29.1382 27 29.1397Z" fill="#B3B3B3"/>
<path d="M23.69 22.0801C23.3094 22.0796 22.9406 21.9476 22.6462 21.7064C22.3518 21.4652 22.1499 21.1297 22.0746 20.7566C21.9992 20.3835 22.0551 19.9959 22.2329 19.6594C22.4106 19.3229 22.6993 19.0581 23.0499 18.9101C23.8655 18.5635 24.5605 17.9838 25.048 17.2438C25.5354 16.5037 25.7936 15.6362 25.79 14.7501C25.7935 14.149 25.6744 13.5535 25.44 13.0001C25.2031 12.4627 24.8634 11.9769 24.44 11.5701C24.0312 11.1489 23.5458 10.8095 23.01 10.5701C22.6564 10.3727 22.3883 10.0515 22.2574 9.66825C22.1264 9.28504 22.1418 8.86693 22.3008 8.49445C22.4597 8.12197 22.7508 7.82146 23.118 7.6508C23.4853 7.48013 23.9028 7.45138 24.29 7.57008C25.4625 8.07189 26.495 8.8522 27.2977 9.84332C28.1005 10.8344 28.6493 12.0064 28.8966 13.2577C29.1439 14.5089 29.0822 15.8016 28.7168 17.0235C28.3515 18.2455 27.6934 19.3599 26.7999 20.2701C26.0941 20.9834 25.2548 21.5508 24.3299 21.9401C24.1281 22.0293 23.9106 22.0769 23.69 22.0801Z" fill="#B3B3B3"/>
</svg>
