<?xml version="1.0" encoding="UTF-8"?>
<svg xmlns="http://www.w3.org/2000/svg" xmlns:xlink="http://www.w3.org/1999/xlink" width="111pt" height="111pt" viewBox="0 0 111 111" version="1.1">
<g id="surface1">
<path style=" stroke:none;fill-rule:nonzero;fill:rgb(0%,0%,0%);fill-opacity:1;" d="M 103.449219 28.96875 C 98.488281 20.476562 91.765625 13.75 83.269531 8.792969 C 74.777344 3.835938 65.5 1.355469 55.441406 1.355469 C 45.382812 1.355469 36.105469 3.835938 27.613281 8.792969 C 19.117188 13.75 12.394531 20.476562 7.4375 28.96875 C 2.480469 37.464844 0 46.738281 0 56.796875 C 0 68.878906 3.523438 79.742188 10.574219 89.390625 C 17.625 99.039062 26.734375 105.71875 37.898438 109.421875 C 39.199219 109.664062 40.160156 109.496094 40.785156 108.917969 C 41.414062 108.339844 41.726562 107.617188 41.726562 106.753906 C 41.726562 106.609375 41.710938 105.308594 41.6875 102.855469 C 41.664062 100.398438 41.652344 98.257812 41.652344 96.429688 L 39.992188 96.71875 C 38.933594 96.914062 37.597656 96.996094 35.984375 96.972656 C 34.375 96.949219 32.699219 96.78125 30.96875 96.464844 C 29.234375 96.15625 27.625 95.433594 26.132812 94.300781 C 24.640625 93.171875 23.582031 91.691406 22.957031 89.863281 L 22.234375 88.203125 C 21.753906 87.097656 20.996094 85.867188 19.960938 84.519531 C 18.925781 83.171875 17.878906 82.257812 16.820312 81.777344 L 16.3125 81.414062 C 15.976562 81.175781 15.664062 80.886719 15.375 80.550781 C 15.085938 80.210938 14.871094 79.875 14.726562 79.539062 C 14.582031 79.199219 14.703125 78.921875 15.085938 78.707031 C 15.472656 78.488281 16.167969 78.382812 17.179688 78.382812 L 18.625 78.601562 C 19.585938 78.792969 20.777344 79.367188 22.199219 80.332031 C 23.617188 81.292969 24.785156 82.546875 25.699219 84.085938 C 26.804688 86.058594 28.140625 87.5625 29.707031 88.597656 C 31.269531 89.632812 32.84375 90.148438 34.433594 90.148438 C 36.019531 90.148438 37.394531 90.027344 38.546875 89.789062 C 39.703125 89.546875 40.785156 89.1875 41.796875 88.707031 C 42.230469 85.480469 43.410156 83 45.332031 81.269531 C 42.589844 80.980469 40.125 80.546875 37.933594 79.96875 C 35.746094 79.390625 33.484375 78.453125 31.148438 77.152344 C 28.8125 75.855469 26.875 74.242188 25.335938 72.316406 C 23.796875 70.390625 22.535156 67.863281 21.546875 64.738281 C 20.5625 61.609375 20.066406 58 20.066406 53.910156 C 20.066406 48.085938 21.96875 43.128906 25.769531 39.035156 C 23.992188 34.65625 24.160156 29.75 26.277344 24.3125 C 27.671875 23.878906 29.742188 24.203125 32.484375 25.285156 C 35.226562 26.367188 37.238281 27.296875 38.511719 28.066406 C 39.789062 28.832031 40.8125 29.484375 41.582031 30.015625 C 46.058594 28.761719 50.675781 28.136719 55.441406 28.136719 C 60.207031 28.136719 64.828125 28.761719 69.304688 30.015625 L 72.046875 28.28125 C 73.921875 27.125 76.136719 26.066406 78.6875 25.105469 C 81.238281 24.144531 83.1875 23.878906 84.535156 24.3125 C 86.699219 29.75 86.894531 34.660156 85.113281 39.039062 C 88.914062 43.128906 90.816406 48.085938 90.816406 53.910156 C 90.816406 58 90.320312 61.621094 89.335938 64.773438 C 88.351562 67.925781 87.074219 70.449219 85.511719 72.351562 C 83.945312 74.253906 81.996094 75.855469 79.664062 77.152344 C 77.328125 78.453125 75.066406 79.390625 72.878906 79.96875 C 70.6875 80.546875 68.222656 80.980469 65.476562 81.269531 C 67.980469 83.433594 69.230469 86.851562 69.230469 91.519531 L 69.230469 106.75 C 69.230469 107.617188 69.53125 108.339844 70.132812 108.917969 C 70.734375 109.492188 71.683594 109.664062 72.984375 109.421875 C 84.152344 105.714844 93.257812 99.039062 100.308594 89.386719 C 107.359375 79.738281 110.886719 68.875 110.886719 56.796875 C 110.882812 46.738281 108.402344 37.464844 103.449219 28.96875 Z M 103.449219 28.96875 "/>
</g>
</svg>
