<?xml version="1.0" encoding="UTF-8"?>
<svg xmlns="http://www.w3.org/2000/svg" xmlns:xlink="http://www.w3.org/1999/xlink" width="299pt" height="111pt" viewBox="0 0 299 111" version="1.1">
<defs>
<clipPath id="clip1">
  <path d="M 195 6 L 260 6 L 260 68 L 195 68 Z M 195 6 "/>
</clipPath>
<clipPath id="clip2">
  <path d="M 254.464844 16.195312 C 245.167969 3.84375 225.472656 3.007812 210.46875 14.328125 C 195.46875 25.652344 190.839844 44.84375 200.136719 57.195312 C 209.433594 69.550781 229.128906 70.386719 244.132812 59.0625 C 259.132812 47.742188 263.761719 28.550781 254.464844 16.195312 Z M 254.464844 16.195312 "/>
</clipPath>
<clipPath id="clip3">
  <path d="M 161.878906 30.570312 L 239.402344 -27.9375 L 293.046875 43.355469 L 215.523438 101.859375 Z M 161.878906 30.570312 "/>
</clipPath>
<clipPath id="clip4">
  <path d="M 254.464844 16.195312 C 245.167969 3.84375 225.472656 3.007812 210.46875 14.328125 C 195.46875 25.652344 190.839844 44.84375 200.136719 57.195312 C 209.433594 69.550781 229.128906 70.386719 244.132812 59.0625 C 259.132812 47.742188 263.761719 28.550781 254.464844 16.195312 Z M 254.464844 16.195312 "/>
</clipPath>
<clipPath id="clip5">
  <path d="M 183.464844 35.332031 L 237.75 -5.636719 L 271.445312 39.140625 L 217.160156 80.109375 Z M 183.464844 35.332031 "/>
</clipPath>
<clipPath id="clip6">
  <path d="M 195 6 L 260 6 L 260 68 L 195 68 Z M 195 6 "/>
</clipPath>
<clipPath id="clip7">
  <path d="M 254.464844 16.195312 C 245.167969 3.84375 225.472656 3.007812 210.46875 14.328125 C 195.46875 25.652344 190.839844 44.84375 200.136719 57.195312 C 209.433594 69.550781 229.128906 70.386719 244.132812 59.0625 C 259.132812 47.742188 263.761719 28.550781 254.464844 16.195312 Z M 254.464844 16.195312 "/>
</clipPath>
<clipPath id="clip8">
  <path d="M 161.878906 30.570312 L 239.402344 -27.9375 L 293.046875 43.355469 L 215.523438 101.859375 Z M 161.878906 30.570312 "/>
</clipPath>
<clipPath id="clip9">
  <path d="M 254.464844 16.195312 C 245.167969 3.84375 225.472656 3.007812 210.46875 14.328125 C 195.46875 25.652344 190.839844 44.84375 200.136719 57.195312 C 209.433594 69.550781 229.128906 70.386719 244.132812 59.0625 C 259.132812 47.742188 263.761719 28.550781 254.464844 16.195312 Z M 254.464844 16.195312 "/>
</clipPath>
<clipPath id="clip10">
  <path d="M 191.199219 62.222656 L 209.9375 -3.210938 L 263.753906 12.242188 L 245.019531 77.675781 Z M 191.199219 62.222656 "/>
</clipPath>
<clipPath id="clip11">
  <path d="M 195 6 L 260 6 L 260 68 L 195 68 Z M 195 6 "/>
</clipPath>
<clipPath id="clip12">
  <path d="M 254.464844 16.195312 C 245.167969 3.84375 225.472656 3.007812 210.46875 14.328125 C 195.46875 25.652344 190.839844 44.84375 200.136719 57.195312 C 209.433594 69.550781 229.128906 70.386719 244.132812 59.0625 C 259.132812 47.742188 263.761719 28.550781 254.464844 16.195312 Z M 254.464844 16.195312 "/>
</clipPath>
<clipPath id="clip13">
  <path d="M 161.878906 30.570312 L 239.402344 -27.9375 L 293.046875 43.355469 L 215.523438 101.859375 Z M 161.878906 30.570312 "/>
</clipPath>
<clipPath id="clip14">
  <path d="M 254.464844 16.195312 C 245.167969 3.84375 225.472656 3.007812 210.46875 14.328125 C 195.46875 25.652344 190.839844 44.84375 200.136719 57.195312 C 209.433594 69.550781 229.128906 70.386719 244.132812 59.0625 C 259.132812 47.742188 263.761719 28.550781 254.464844 16.195312 Z M 254.464844 16.195312 "/>
</clipPath>
<clipPath id="clip15">
  <path d="M 183.464844 35.332031 L 237.75 -5.636719 L 271.445312 39.140625 L 217.160156 80.109375 Z M 183.464844 35.332031 "/>
</clipPath>
<clipPath id="clip16">
  <path d="M 195 6 L 260 6 L 260 68 L 195 68 Z M 195 6 "/>
</clipPath>
<clipPath id="clip17">
  <path d="M 254.464844 16.195312 C 245.167969 3.84375 225.472656 3.007812 210.46875 14.328125 C 195.46875 25.652344 190.839844 44.84375 200.136719 57.195312 C 209.433594 69.550781 229.128906 70.386719 244.132812 59.0625 C 259.132812 47.742188 263.761719 28.550781 254.464844 16.195312 Z M 254.464844 16.195312 "/>
</clipPath>
<clipPath id="clip18">
  <path d="M 161.878906 30.570312 L 239.402344 -27.9375 L 293.046875 43.355469 L 215.523438 101.859375 Z M 161.878906 30.570312 "/>
</clipPath>
<clipPath id="clip19">
  <path d="M 254.464844 16.195312 C 245.167969 3.84375 225.472656 3.007812 210.46875 14.328125 C 195.46875 25.652344 190.839844 44.84375 200.136719 57.195312 C 209.433594 69.550781 229.128906 70.386719 244.132812 59.0625 C 259.132812 47.742188 263.761719 28.550781 254.464844 16.195312 Z M 254.464844 16.195312 "/>
</clipPath>
<clipPath id="clip20">
  <path d="M 191.199219 62.222656 L 209.9375 -3.210938 L 263.753906 12.242188 L 245.019531 77.675781 Z M 191.199219 62.222656 "/>
</clipPath>
<clipPath id="clip21">
  <path d="M 195 6 L 260 6 L 260 68 L 195 68 Z M 195 6 "/>
</clipPath>
<clipPath id="clip22">
  <path d="M 254.464844 16.195312 C 245.167969 3.84375 225.472656 3.007812 210.46875 14.328125 C 195.46875 25.652344 190.839844 44.84375 200.136719 57.195312 C 209.433594 69.550781 229.128906 70.386719 244.132812 59.0625 C 259.132812 47.742188 263.761719 28.550781 254.464844 16.195312 Z M 254.464844 16.195312 "/>
</clipPath>
<clipPath id="clip23">
  <path d="M 161.878906 30.570312 L 239.402344 -27.9375 L 293.046875 43.355469 L 215.523438 101.859375 Z M 161.878906 30.570312 "/>
</clipPath>
<clipPath id="clip24">
  <path d="M 254.464844 16.195312 C 245.167969 3.84375 225.472656 3.007812 210.46875 14.328125 C 195.46875 25.652344 190.839844 44.84375 200.136719 57.195312 C 209.433594 69.550781 229.128906 70.386719 244.132812 59.0625 C 259.132812 47.742188 263.761719 28.550781 254.464844 16.195312 Z M 254.464844 16.195312 "/>
</clipPath>
<clipPath id="clip25">
  <path d="M 195 6 L 260 6 L 260 68 L 195 68 Z M 195 6 "/>
</clipPath>
<clipPath id="clip26">
  <path d="M 254.464844 16.195312 C 245.167969 3.84375 225.472656 3.007812 210.46875 14.328125 C 195.46875 25.652344 190.839844 44.84375 200.136719 57.195312 C 209.433594 69.550781 229.128906 70.386719 244.132812 59.0625 C 259.132812 47.742188 263.761719 28.550781 254.464844 16.195312 Z M 254.464844 16.195312 "/>
</clipPath>
<clipPath id="clip27">
  <path d="M 161.878906 30.570312 L 239.402344 -27.9375 L 293.046875 43.355469 L 215.523438 101.859375 Z M 161.878906 30.570312 "/>
</clipPath>
<clipPath id="clip28">
  <path d="M 211 19 L 246 19 L 246 55 L 211 55 Z M 211 19 "/>
</clipPath>
<clipPath id="clip29">
  <path d="M 254.464844 16.195312 C 245.167969 3.84375 225.472656 3.007812 210.46875 14.328125 C 195.46875 25.652344 190.839844 44.84375 200.136719 57.195312 C 209.433594 69.550781 229.128906 70.386719 244.132812 59.0625 C 259.132812 47.742188 263.761719 28.550781 254.464844 16.195312 Z M 254.464844 16.195312 "/>
</clipPath>
<clipPath id="clip30">
  <path d="M 161.878906 30.570312 L 239.402344 -27.9375 L 293.046875 43.355469 L 215.523438 101.859375 Z M 161.878906 30.570312 "/>
</clipPath>
</defs>
<g id="surface1">
<path style=" stroke:none;fill-rule:nonzero;fill:rgb(0%,0%,0%);fill-opacity:1;" d="M 154.359375 36.765625 L 168.558594 35.847656 C 168.882812 38.171875 169.476562 39.902344 170.449219 41.144531 C 172.015625 43.089844 174.171875 44.066406 177.035156 44.066406 C 179.140625 44.066406 180.8125 43.578125 181.949219 42.550781 C 183.027344 41.738281 183.675781 40.441406 183.675781 39.089844 C 183.675781 37.792969 183.082031 36.550781 182.054688 35.738281 C 180.976562 34.765625 178.4375 33.792969 174.441406 32.925781 C 167.910156 31.46875 163.214844 29.519531 160.460938 27.035156 C 157.707031 24.707031 156.140625 21.300781 156.25 17.679688 C 156.25 15.191406 157.003906 12.707031 158.410156 10.652344 C 160.027344 8.328125 162.242188 6.488281 164.886719 5.460938 C 167.75 4.21875 171.742188 3.570312 176.765625 3.570312 C 182.917969 3.570312 187.617188 4.703125 190.855469 7.027344 C 194.09375 9.300781 196.039062 12.976562 196.632812 18.003906 L 182.59375 18.816406 C 182.21875 16.652344 181.460938 15.085938 180.21875 14.058594 C 178.976562 13.03125 177.359375 12.542969 175.253906 12.542969 C 173.527344 12.542969 172.230469 12.921875 171.367188 13.625 C 170.554688 14.273438 170.015625 15.246094 170.070312 16.328125 C 170.070312 17.140625 170.503906 17.894531 171.148438 18.382812 C 171.851562 19.03125 173.527344 19.625 176.171875 20.167969 C 182.703125 21.574219 187.347656 22.980469 190.207031 24.4375 C 193.070312 25.898438 195.121094 27.683594 196.363281 29.792969 C 197.660156 31.953125 198.308594 34.441406 198.253906 36.980469 C 198.253906 40.007812 197.390625 43.039062 195.660156 45.578125 C 193.878906 48.226562 191.394531 50.28125 188.480469 51.527344 C 185.402344 52.878906 181.515625 53.582031 176.871094 53.582031 C 168.667969 53.582031 162.996094 52.011719 159.8125 48.824219 C 156.625 45.632812 154.738281 41.632812 154.359375 36.765625 Z M 3.671875 52.769531 L 3.671875 4.433594 L 28.5625 4.433594 C 33.152344 4.433594 36.714844 4.8125 39.144531 5.621094 C 41.519531 6.378906 43.625 7.949219 45.03125 10.054688 C 46.59375 12.382812 47.351562 15.085938 47.296875 17.894531 C 47.460938 22.652344 45.03125 27.195312 40.871094 29.574219 C 39.253906 30.492188 37.472656 31.144531 35.636719 31.46875 C 36.984375 31.84375 38.335938 32.496094 39.523438 33.25 C 40.441406 34.007812 41.195312 34.875 41.898438 35.792969 C 42.707031 36.710938 43.410156 37.738281 44.003906 38.820312 L 51.238281 52.824219 L 34.285156 52.824219 L 26.296875 37.957031 C 25.269531 36.0625 24.40625 34.820312 23.597656 34.222656 C 22.515625 33.46875 21.21875 33.089844 19.925781 33.089844 L 18.628906 33.089844 L 18.628906 52.714844 L 3.671875 52.714844 Z M 18.628906 24.003906 L 24.945312 24.003906 C 26.296875 23.898438 27.589844 23.679688 28.886719 23.355469 C 29.859375 23.195312 30.722656 22.652344 31.316406 21.84375 C 32.773438 19.898438 32.558594 17.140625 30.777344 15.464844 C 29.804688 14.652344 27.914062 14.21875 25.214844 14.21875 L 18.628906 14.21875 Z M 0.273438 94.183594 L 14.472656 93.265625 C 14.796875 95.589844 15.390625 97.320312 16.363281 98.566406 C 17.875 100.511719 20.085938 101.539062 22.949219 101.539062 C 25.054688 101.539062 26.726562 101.050781 27.859375 100.023438 C 28.941406 99.160156 29.589844 97.914062 29.589844 96.5625 C 29.589844 95.265625 28.996094 94.023438 27.96875 93.210938 C 26.890625 92.238281 24.351562 91.265625 20.300781 90.398438 C 13.769531 88.941406 9.074219 86.996094 6.320312 84.507812 C 3.566406 82.183594 2 78.777344 2.109375 75.152344 C 2.109375 72.667969 2.863281 70.179688 4.269531 68.125 C 5.886719 65.800781 8.101562 63.960938 10.746094 62.933594 C 13.609375 61.691406 17.601562 61.042969 22.625 61.042969 C 28.777344 61.042969 33.476562 62.175781 36.714844 64.503906 C 39.953125 66.828125 41.84375 70.449219 42.4375 75.476562 L 28.402344 76.289062 C 28.023438 74.125 27.265625 72.558594 26.027344 71.53125 C 24.835938 70.503906 23.164062 70.015625 21.058594 70.070312 C 19.332031 70.070312 18.035156 70.449219 17.171875 71.207031 C 16.308594 71.855469 15.820312 72.828125 15.875 73.910156 C 15.875 74.722656 16.308594 75.476562 16.957031 75.964844 C 17.65625 76.613281 19.332031 77.207031 21.976562 77.75 C 28.507812 79.15625 33.152344 80.558594 36.011719 82.019531 C 38.875 83.480469 40.925781 85.265625 42.167969 87.371094 C 43.464844 89.535156 44.113281 92.023438 44.113281 94.507812 C 44.113281 97.539062 43.195312 100.511719 41.519531 103.050781 C 39.738281 105.703125 37.253906 107.757812 34.339844 109 C 31.261719 110.351562 27.375 111.054688 22.730469 111.054688 C 14.527344 111.054688 8.855469 109.484375 5.671875 106.296875 C 2.484375 103.050781 0.703125 99.050781 0.273438 94.183594 Z M 0.273438 94.183594 "/>
<path style=" stroke:none;fill-rule:nonzero;fill:rgb(0%,0%,0%);fill-opacity:1;" d="M 72.078125 90.398438 L 85.144531 94.347656 C 84.441406 97.644531 82.984375 100.78125 80.988281 103.539062 C 79.152344 105.972656 76.722656 107.863281 73.96875 109.109375 C 71.160156 110.351562 67.597656 111 63.277344 111 C 58.042969 111 53.722656 110.242188 50.429688 108.730469 C 47.082031 107.214844 44.21875 104.511719 41.789062 100.671875 C 39.359375 96.835938 38.171875 91.914062 38.171875 85.914062 C 38.171875 77.910156 40.277344 71.746094 44.542969 67.476562 C 48.808594 63.203125 54.800781 61.042969 62.578125 61.042969 C 68.675781 61.042969 73.429688 62.285156 76.9375 64.71875 C 80.394531 67.207031 82.984375 70.992188 84.710938 76.074219 L 71.539062 78.992188 C 71.214844 77.855469 70.730469 76.722656 70.082031 75.75 C 69.269531 74.613281 68.246094 73.746094 67.003906 73.097656 C 65.761719 72.449219 64.359375 72.179688 62.953125 72.179688 C 59.554688 72.179688 56.960938 73.53125 55.179688 76.289062 C 53.832031 78.289062 53.128906 81.480469 53.128906 85.804688 C 53.128906 91.15625 53.9375 94.832031 55.558594 96.835938 C 57.175781 98.835938 59.445312 99.808594 62.414062 99.808594 C 65.277344 99.808594 67.4375 98.996094 68.894531 97.429688 C 70.351562 95.753906 71.429688 93.429688 72.078125 90.398438 Z M 102.582031 61.851562 L 117.484375 61.851562 L 117.484375 78.777344 L 133.789062 78.777344 L 133.789062 61.851562 L 148.796875 61.851562 L 148.796875 110.1875 L 133.789062 110.1875 L 133.789062 90.617188 L 117.484375 90.617188 L 117.484375 110.1875 L 102.582031 110.1875 Z M 102.582031 61.851562 "/>
<path style=" stroke:none;fill-rule:nonzero;fill:rgb(0%,0%,0%);fill-opacity:1;" d="M 146.746094 86.019531 C 146.746094 78.128906 148.960938 71.964844 153.332031 67.585938 C 157.707031 63.203125 163.859375 60.988281 171.691406 60.988281 C 179.734375 60.988281 185.890625 63.152344 190.261719 67.476562 C 194.636719 71.800781 196.796875 77.855469 196.796875 85.640625 C 196.796875 91.320312 195.824219 95.914062 193.933594 99.539062 C 192.097656 103.105469 189.238281 106.027344 185.726562 107.972656 C 182.109375 109.972656 177.628906 111 172.285156 111 C 166.832031 111 162.347656 110.136719 158.785156 108.40625 C 155.113281 106.566406 152.089844 103.699219 150.09375 100.1875 C 147.878906 96.402344 146.746094 91.699219 146.746094 86.019531 Z M 161.648438 86.074219 C 161.648438 90.941406 162.566406 94.457031 164.347656 96.617188 C 166.128906 98.726562 168.613281 99.808594 171.742188 99.808594 C 174.929688 99.808594 177.414062 98.78125 179.195312 96.671875 C 180.976562 94.5625 181.839844 90.832031 181.839844 85.425781 C 181.839844 80.882812 180.921875 77.53125 179.085938 75.476562 C 177.25 73.371094 174.765625 72.34375 171.636719 72.34375 C 168.882812 72.234375 166.238281 73.421875 164.402344 75.53125 C 162.566406 77.640625 161.648438 81.15625 161.648438 86.074219 Z M 212.074219 86.019531 C 212.074219 78.128906 214.289062 71.964844 218.660156 67.585938 C 223.035156 63.203125 229.1875 60.988281 237.015625 60.988281 C 245.0625 60.988281 251.269531 63.152344 255.589844 67.476562 C 259.910156 71.800781 262.121094 77.855469 262.121094 85.640625 C 262.121094 91.320312 261.152344 95.914062 259.261719 99.539062 C 257.425781 103.105469 254.5625 106.027344 251.054688 107.972656 C 247.4375 109.972656 242.957031 111 237.609375 111 C 232.160156 111 227.675781 110.136719 224.113281 108.40625 C 220.441406 106.566406 217.417969 103.699219 215.421875 100.1875 C 213.207031 96.402344 212.074219 91.699219 212.074219 86.019531 Z M 226.976562 86.074219 C 226.976562 90.941406 227.894531 94.457031 229.675781 96.617188 C 231.457031 98.726562 233.941406 99.808594 237.070312 99.808594 C 240.257812 99.808594 242.738281 98.78125 244.523438 96.671875 C 246.304688 94.5625 247.167969 90.832031 247.167969 85.425781 C 247.167969 80.882812 246.25 77.53125 244.414062 75.476562 C 242.578125 73.371094 240.09375 72.34375 236.964844 72.34375 C 234.210938 72.234375 231.511719 73.421875 229.730469 75.53125 C 227.894531 77.640625 226.976562 81.15625 226.976562 86.074219 Z M 226.976562 86.074219 "/>
<path style=" stroke:none;fill-rule:nonzero;fill:rgb(0%,0%,0%);fill-opacity:1;" d="M 260.558594 61.851562 L 275.457031 61.851562 L 275.457031 98.292969 L 298.726562 98.292969 L 298.726562 110.1875 L 260.503906 110.1875 L 260.503906 61.851562 Z M 260.558594 61.851562 "/>
<path style=" stroke:none;fill-rule:nonzero;fill:rgb(100%,100%,100%);fill-opacity:1;" d="M 254.464844 16.195312 C 245.167969 3.84375 225.472656 3.007812 210.46875 14.328125 C 195.46875 25.652344 190.839844 44.84375 200.136719 57.195312 C 209.433594 69.550781 229.128906 70.386719 244.132812 59.0625 C 259.132812 47.742188 263.761719 28.550781 254.464844 16.195312 Z M 254.464844 16.195312 "/>
<g clip-path="url(#clip1)" clip-rule="nonzero">
<g clip-path="url(#clip2)" clip-rule="nonzero">
<path style=" stroke:none;fill-rule:nonzero;fill:rgb(100%,100%,100%);fill-opacity:1;" d="M 161.878906 30.570312 L 239.402344 -27.9375 L 293.046875 43.355469 L 215.523438 101.859375 Z M 161.878906 30.570312 "/>
<g clip-path="url(#clip3)" clip-rule="nonzero">
<path style=" stroke:none;fill-rule:nonzero;fill:rgb(100%,100%,100%);fill-opacity:1;" d="M 254.464844 16.195312 C 245.167969 3.84375 225.472656 3.007812 210.46875 14.328125 C 195.46875 25.652344 190.839844 44.84375 200.136719 57.195312 C 209.433594 69.550781 229.128906 70.386719 244.132812 59.0625 C 259.132812 47.742188 263.761719 28.550781 254.464844 16.195312 Z M 254.464844 16.195312 "/>
<g clip-path="url(#clip4)" clip-rule="nonzero">
<path style=" stroke:none;fill-rule:nonzero;fill:rgb(100%,100%,100%);fill-opacity:1;" d="M 183.464844 35.332031 L 237.75 -5.636719 L 271.445312 39.140625 L 217.160156 80.109375 Z M 183.464844 35.332031 "/>
<g clip-path="url(#clip5)" clip-rule="nonzero">
<path style="fill-rule:nonzero;fill:rgb(100%,100%,100%);fill-opacity:1;stroke-width:4;stroke-linecap:butt;stroke-linejoin:miter;stroke:rgb(0%,0%,0%);stroke-opacity:1;stroke-miterlimit:10;" d="M 483.500825 67.897314 C 483.497406 39.289539 455.294255 16.100206 420.499438 16.096387 C 385.706051 16.102693 357.4967 39.290362 357.500118 67.898136 C 357.499189 96.511681 385.702341 119.701014 420.501505 119.699063 C 455.290544 119.698527 483.499895 96.510858 483.500825 67.897314 Z M 483.500825 67.897314 " transform="matrix(0.431175,-0.325392,0.324926,0.431794,23.929649,144.205025)"/>
</g>
</g>
</g>
</g>
</g>
<g clip-path="url(#clip6)" clip-rule="nonzero">
<g clip-path="url(#clip7)" clip-rule="nonzero">
<g clip-path="url(#clip8)" clip-rule="nonzero">
<g clip-path="url(#clip9)" clip-rule="nonzero">
<g clip-path="url(#clip10)" clip-rule="nonzero">
<path style="fill:none;stroke-width:4;stroke-linecap:butt;stroke-linejoin:miter;stroke:rgb(0%,0%,0%);stroke-opacity:1;stroke-miterlimit:10;" d="M 357.797334 17.002392 L 483.699696 16.997633 L 483.70197 120.698613 L 357.799608 120.703371 Z M 357.797334 17.002392 " transform="matrix(0.431181,-0.325385,0.324918,0.4318,23.665056,144.412157)"/>
</g>
</g>
</g>
</g>
</g>
<g clip-path="url(#clip11)" clip-rule="nonzero">
<g clip-path="url(#clip12)" clip-rule="nonzero">
<g clip-path="url(#clip13)" clip-rule="nonzero">
<g clip-path="url(#clip14)" clip-rule="nonzero">
<path style="fill:none;stroke-width:4;stroke-linecap:butt;stroke-linejoin:miter;stroke:rgb(0%,0%,0%);stroke-opacity:1;stroke-miterlimit:10;" d="M 483.500825 67.897314 C 483.497406 39.289539 455.294255 16.100206 420.499438 16.096387 C 385.706051 16.102693 357.4967 39.290362 357.500118 67.898136 C 357.499189 96.511681 385.702341 119.701014 420.501505 119.699063 C 455.290544 119.698527 483.499895 96.510858 483.500825 67.897314 Z M 483.500825 67.897314 " transform="matrix(0.431175,-0.325392,0.324926,0.431794,23.929649,144.205025)"/>
<path style=" stroke:none;fill-rule:nonzero;fill:rgb(100%,100%,100%);fill-opacity:1;" d="M 183.464844 35.332031 L 237.75 -5.636719 L 271.445312 39.140625 L 217.160156 80.109375 Z M 183.464844 35.332031 "/>
<g clip-path="url(#clip15)" clip-rule="nonzero">
<path style="fill-rule:nonzero;fill:rgb(100%,100%,100%);fill-opacity:1;stroke-width:4;stroke-linecap:butt;stroke-linejoin:miter;stroke:rgb(0%,0%,0%);stroke-opacity:1;stroke-miterlimit:10;" d="M 483.500825 67.897314 C 483.497406 39.289539 455.294255 16.100206 420.499438 16.096387 C 385.706051 16.102693 357.4967 39.290362 357.500118 67.898136 C 357.499189 96.511681 385.702341 119.701014 420.501505 119.699063 C 455.290544 119.698527 483.499895 96.510858 483.500825 67.897314 Z M 483.500825 67.897314 " transform="matrix(0.431175,-0.325392,0.324926,0.431794,23.929649,144.205025)"/>
</g>
</g>
</g>
</g>
</g>
<g clip-path="url(#clip16)" clip-rule="nonzero">
<g clip-path="url(#clip17)" clip-rule="nonzero">
<g clip-path="url(#clip18)" clip-rule="nonzero">
<g clip-path="url(#clip19)" clip-rule="nonzero">
<g clip-path="url(#clip20)" clip-rule="nonzero">
<path style="fill:none;stroke-width:4;stroke-linecap:butt;stroke-linejoin:miter;stroke:rgb(0%,0%,0%);stroke-opacity:1;stroke-miterlimit:10;" d="M 357.797334 17.002392 L 483.699696 16.997633 L 483.70197 120.698613 L 357.799608 120.703371 Z M 357.797334 17.002392 " transform="matrix(0.431181,-0.325385,0.324918,0.4318,23.665056,144.412157)"/>
</g>
</g>
</g>
</g>
</g>
<g clip-path="url(#clip21)" clip-rule="nonzero">
<g clip-path="url(#clip22)" clip-rule="nonzero">
<g clip-path="url(#clip23)" clip-rule="nonzero">
<g clip-path="url(#clip24)" clip-rule="nonzero">
<path style="fill:none;stroke-width:4;stroke-linecap:butt;stroke-linejoin:miter;stroke:rgb(0%,0%,0%);stroke-opacity:1;stroke-miterlimit:10;" d="M 330.902286 -14.197354 L 510.702061 -14.202846 L 510.696879 150.901876 L 330.901451 150.901598 Z M 330.902286 -14.197354 " transform="matrix(0.431175,-0.325392,0.324926,0.431794,23.815099,144.373666)"/>
</g>
</g>
</g>
</g>
<g clip-path="url(#clip25)" clip-rule="nonzero">
<g clip-path="url(#clip26)" clip-rule="nonzero">
<g clip-path="url(#clip27)" clip-rule="nonzero">
<path style="fill:none;stroke-width:4;stroke-linecap:butt;stroke-linejoin:miter;stroke:rgb(0%,0%,0%);stroke-opacity:1;stroke-miterlimit:10;" d="M 483.500825 67.897314 C 483.497406 39.289539 455.294255 16.100206 420.499438 16.096387 C 385.706051 16.102693 357.4967 39.290362 357.500118 67.898136 C 357.499189 96.511681 385.702341 119.701014 420.501505 119.699063 C 455.290544 119.698527 483.499895 96.510858 483.500825 67.897314 Z M 483.500825 67.897314 " transform="matrix(0.431175,-0.325392,0.324926,0.431794,23.929649,144.205025)"/>
</g>
</g>
</g>
<g clip-path="url(#clip28)" clip-rule="nonzero">
<g clip-path="url(#clip29)" clip-rule="nonzero">
<g clip-path="url(#clip30)" clip-rule="nonzero">
<path style=" stroke:none;fill-rule:nonzero;fill:rgb(0%,0%,0%);fill-opacity:1;" d="M 212.128906 33.144531 L 217.527344 29.359375 L 224.167969 38.820312 C 225.300781 40.335938 226.164062 41.957031 226.8125 43.742188 C 227.191406 45.09375 227.082031 46.550781 226.542969 47.847656 C 225.839844 49.472656 224.707031 50.824219 223.195312 51.796875 C 221.414062 53.039062 219.902344 53.742188 218.605469 53.960938 C 217.363281 54.175781 216.070312 53.960938 214.882812 53.417969 C 213.585938 52.769531 212.453125 51.851562 211.589844 50.660156 L 216.230469 46.335938 C 216.609375 46.929688 217.09375 47.472656 217.636719 47.902344 C 218.011719 48.175781 218.445312 48.335938 218.929688 48.335938 C 219.308594 48.335938 219.6875 48.175781 219.957031 47.957031 C 220.496094 47.632812 220.875 46.984375 220.820312 46.335938 C 220.660156 45.417969 220.28125 44.496094 219.6875 43.792969 Z M 228.324219 39.144531 L 233.238281 35.25 C 233.777344 35.902344 234.480469 36.386719 235.234375 36.65625 C 236.316406 36.980469 237.449219 36.765625 238.367188 36.0625 C 239.015625 35.628906 239.554688 35.035156 239.769531 34.277344 C 240.09375 33.304688 239.554688 32.222656 238.582031 31.898438 C 238.421875 31.84375 238.257812 31.792969 238.097656 31.792969 C 237.449219 31.738281 236.316406 32.007812 234.640625 32.710938 C 231.886719 33.847656 229.730469 34.277344 228.109375 34.117188 C 226.542969 33.953125 225.085938 33.144531 224.222656 31.792969 C 223.574219 30.871094 223.25 29.792969 223.195312 28.710938 C 223.195312 27.464844 223.519531 26.222656 224.222656 25.195312 C 225.246094 23.734375 226.488281 22.492188 228 21.519531 C 230.269531 19.949219 232.265625 19.195312 233.992188 19.195312 C 235.722656 19.195312 237.339844 20.003906 238.851562 21.679688 L 233.992188 25.519531 C 233.023438 24.277344 231.1875 24.003906 229.945312 24.980469 L 229.78125 25.140625 C 229.242188 25.464844 228.863281 25.953125 228.648438 26.546875 C 228.488281 26.980469 228.59375 27.464844 228.863281 27.84375 C 229.082031 28.113281 229.40625 28.332031 229.78125 28.332031 C 230.214844 28.386719 230.96875 28.167969 232.050781 27.683594 C 234.75 26.546875 236.800781 25.898438 238.207031 25.683594 C 239.394531 25.464844 240.632812 25.574219 241.769531 26.058594 C 242.792969 26.492188 243.65625 27.25 244.25 28.167969 C 245.007812 29.25 245.441406 30.546875 245.492188 31.898438 C 245.546875 33.304688 245.167969 34.65625 244.414062 35.847656 C 243.441406 37.304688 242.199219 38.550781 240.742188 39.523438 C 237.773438 41.578125 235.34375 42.441406 233.398438 42.117188 C 231.292969 41.792969 229.566406 40.710938 228.324219 39.144531 Z M 228.324219 39.144531 "/>
</g>
</g>
</g>
</g>
</svg>
